<mxfile host="app.diagrams.net" agent="Mozilla/5.0 (X11; Linux x86_64) AppleWebKit/537.36 (KHTML, like Gecko) Chrome/141.0.0.0 Safari/537.36" version="28.2.5">
  <diagram name="Pagina-1" id="_RR5u_1EjoR0-DqU05e3">
    <mxGraphModel dx="924" dy="843" grid="1" gridSize="10" guides="1" tooltips="1" connect="1" arrows="1" fold="1" page="1" pageScale="1" pageWidth="827" pageHeight="1169" math="0" shadow="0">
      <root>
        <mxCell id="0" />
        <mxCell id="1" parent="0" />
        <mxCell id="6Imcm91qEhIeb4S8i93R-5" value="Cliente" style="whiteSpace=wrap;html=1;align=center;" parent="1" vertex="1">
          <mxGeometry x="82.5" y="80" width="100" height="40" as="geometry" />
        </mxCell>
        <mxCell id="XxSwmNDuDuMiFSIuTs7M-7" value="" style="endArrow=oval;html=1;rounded=0;endFill=1;exitX=0.25;exitY=0;exitDx=0;exitDy=0;" parent="1" edge="1">
          <mxGeometry width="50" height="50" relative="1" as="geometry">
            <mxPoint x="82.5" y="80" as="sourcePoint" />
            <mxPoint x="67.5" y="50" as="targetPoint" />
          </mxGeometry>
        </mxCell>
        <mxCell id="XxSwmNDuDuMiFSIuTs7M-8" value="CF" style="edgeLabel;html=1;align=center;verticalAlign=bottom;resizable=0;points=[];labelPosition=center;verticalLabelPosition=top;spacing=6;" parent="XxSwmNDuDuMiFSIuTs7M-7" vertex="1" connectable="0">
          <mxGeometry x="0.9137" y="-2" relative="1" as="geometry">
            <mxPoint as="offset" />
          </mxGeometry>
        </mxCell>
        <mxCell id="XxSwmNDuDuMiFSIuTs7M-9" value="Stanza" style="whiteSpace=wrap;html=1;align=center;" parent="1" vertex="1">
          <mxGeometry x="680" y="80" width="100" height="40" as="geometry" />
        </mxCell>
        <mxCell id="XxSwmNDuDuMiFSIuTs7M-10" value="" style="endArrow=oval;html=1;rounded=0;endFill=0;exitX=0.25;exitY=0;exitDx=0;exitDy=0;" parent="1" edge="1">
          <mxGeometry width="50" height="50" relative="1" as="geometry">
            <mxPoint x="680" y="80" as="sourcePoint" />
            <mxPoint x="650" y="40" as="targetPoint" />
          </mxGeometry>
        </mxCell>
        <mxCell id="XxSwmNDuDuMiFSIuTs7M-11" value="Prezzo" style="edgeLabel;html=1;align=right;verticalAlign=middle;resizable=0;points=[];labelPosition=left;verticalLabelPosition=middle;spacing=6;labelBackgroundColor=none;" parent="XxSwmNDuDuMiFSIuTs7M-10" vertex="1" connectable="0">
          <mxGeometry x="0.9137" y="-2" relative="1" as="geometry">
            <mxPoint x="-3" as="offset" />
          </mxGeometry>
        </mxCell>
        <mxCell id="XxSwmNDuDuMiFSIuTs7M-14" value="" style="endArrow=oval;html=1;rounded=0;endFill=1;exitX=0.5;exitY=0;exitDx=0;exitDy=0;" parent="1" source="XxSwmNDuDuMiFSIuTs7M-9" edge="1">
          <mxGeometry width="50" height="50" relative="1" as="geometry">
            <mxPoint x="745" y="80" as="sourcePoint" />
            <mxPoint x="730" y="50" as="targetPoint" />
          </mxGeometry>
        </mxCell>
        <mxCell id="XxSwmNDuDuMiFSIuTs7M-15" value="Numero" style="edgeLabel;html=1;align=center;verticalAlign=bottom;resizable=0;points=[];labelPosition=center;verticalLabelPosition=top;spacing=6;" parent="XxSwmNDuDuMiFSIuTs7M-14" vertex="1" connectable="0">
          <mxGeometry x="0.9137" y="-2" relative="1" as="geometry">
            <mxPoint as="offset" />
          </mxGeometry>
        </mxCell>
        <mxCell id="XxSwmNDuDuMiFSIuTs7M-16" value="Base" style="whiteSpace=wrap;html=1;align=center;" parent="1" vertex="1">
          <mxGeometry x="590" y="200" width="100" height="40" as="geometry" />
        </mxCell>
        <mxCell id="XxSwmNDuDuMiFSIuTs7M-17" value="Suite" style="whiteSpace=wrap;html=1;align=center;" parent="1" vertex="1">
          <mxGeometry x="770" y="200" width="100" height="40" as="geometry" />
        </mxCell>
        <mxCell id="XxSwmNDuDuMiFSIuTs7M-20" value="" style="endArrow=none;html=1;rounded=0;edgeStyle=orthogonalEdgeStyle;movable=1;resizable=1;rotatable=1;deletable=1;editable=1;locked=0;connectable=1;" parent="1" edge="1">
          <mxGeometry width="50" height="50" relative="1" as="geometry">
            <mxPoint x="639.9855172413792" y="200" as="sourcePoint" />
            <mxPoint x="819.9855172413792" y="200" as="targetPoint" />
            <Array as="points">
              <mxPoint x="639.9855172413792" y="160" />
              <mxPoint x="819.9855172413792" y="160" />
            </Array>
          </mxGeometry>
        </mxCell>
        <mxCell id="XxSwmNDuDuMiFSIuTs7M-21" value="" style="shape=flexArrow;endArrow=classic;html=1;rounded=0;endWidth=17.68660405338606;endSize=4.469620253164557;width=15.822784810126581;movable=1;resizable=1;rotatable=1;deletable=1;editable=1;locked=0;connectable=1;fillColor=#FFFFFF;" parent="1" edge="1">
          <mxGeometry width="50" height="50" relative="1" as="geometry">
            <mxPoint x="729.9855172413792" y="160" as="sourcePoint" />
            <mxPoint x="729.9855172413792" y="120" as="targetPoint" />
          </mxGeometry>
        </mxCell>
        <mxCell id="XxSwmNDuDuMiFSIuTs7M-27" value="" style="endArrow=oval;html=1;rounded=0;endFill=0;exitX=0.25;exitY=0;exitDx=0;exitDy=0;" parent="1" edge="1">
          <mxGeometry width="50" height="50" relative="1" as="geometry">
            <mxPoint x="780" y="80" as="sourcePoint" />
            <mxPoint x="810" y="40" as="targetPoint" />
          </mxGeometry>
        </mxCell>
        <mxCell id="XxSwmNDuDuMiFSIuTs7M-28" value="Capacità" style="edgeLabel;html=1;align=right;verticalAlign=middle;resizable=0;points=[];labelPosition=left;verticalLabelPosition=middle;spacing=6;labelBackgroundColor=none;" parent="XxSwmNDuDuMiFSIuTs7M-27" vertex="1" connectable="0">
          <mxGeometry x="0.9137" y="-2" relative="1" as="geometry">
            <mxPoint x="-3" as="offset" />
          </mxGeometry>
        </mxCell>
        <mxCell id="XxSwmNDuDuMiFSIuTs7M-29" value="" style="endArrow=oval;html=1;rounded=0;endFill=0;exitX=0.25;exitY=0;exitDx=0;exitDy=0;" parent="1" edge="1">
          <mxGeometry width="50" height="50" relative="1" as="geometry">
            <mxPoint x="82.5" y="100" as="sourcePoint" />
            <mxPoint x="37.5" y="80" as="targetPoint" />
          </mxGeometry>
        </mxCell>
        <mxCell id="XxSwmNDuDuMiFSIuTs7M-30" value="Nome" style="edgeLabel;html=1;align=right;verticalAlign=middle;resizable=0;points=[];labelPosition=left;verticalLabelPosition=middle;spacing=6;labelBackgroundColor=none;" parent="XxSwmNDuDuMiFSIuTs7M-29" vertex="1" connectable="0">
          <mxGeometry x="0.9137" y="-2" relative="1" as="geometry">
            <mxPoint x="-3" as="offset" />
          </mxGeometry>
        </mxCell>
        <mxCell id="XxSwmNDuDuMiFSIuTs7M-31" value="" style="endArrow=oval;html=1;rounded=0;endFill=0;exitX=0.25;exitY=0;exitDx=0;exitDy=0;" parent="1" edge="1">
          <mxGeometry width="50" height="50" relative="1" as="geometry">
            <mxPoint x="126.25" y="80" as="sourcePoint" />
            <mxPoint x="137.5" y="40" as="targetPoint" />
          </mxGeometry>
        </mxCell>
        <mxCell id="XxSwmNDuDuMiFSIuTs7M-32" value="Età" style="edgeLabel;html=1;align=right;verticalAlign=middle;resizable=0;points=[];labelPosition=left;verticalLabelPosition=middle;spacing=6;labelBackgroundColor=none;" parent="XxSwmNDuDuMiFSIuTs7M-31" vertex="1" connectable="0">
          <mxGeometry x="0.9137" y="-2" relative="1" as="geometry">
            <mxPoint x="-3" as="offset" />
          </mxGeometry>
        </mxCell>
        <mxCell id="XxSwmNDuDuMiFSIuTs7M-33" value="" style="endArrow=oval;html=1;rounded=0;endFill=0;exitX=0.25;exitY=0;exitDx=0;exitDy=0;" parent="1" edge="1">
          <mxGeometry width="50" height="50" relative="1" as="geometry">
            <mxPoint x="182.5" y="80" as="sourcePoint" />
            <mxPoint x="195" y="30" as="targetPoint" />
          </mxGeometry>
        </mxCell>
        <mxCell id="XxSwmNDuDuMiFSIuTs7M-34" value="Email" style="edgeLabel;html=1;align=right;verticalAlign=middle;resizable=0;points=[];labelPosition=left;verticalLabelPosition=middle;spacing=6;labelBackgroundColor=none;" parent="XxSwmNDuDuMiFSIuTs7M-33" vertex="1" connectable="0">
          <mxGeometry x="0.9137" y="-2" relative="1" as="geometry">
            <mxPoint x="-3" as="offset" />
          </mxGeometry>
        </mxCell>
        <mxCell id="XxSwmNDuDuMiFSIuTs7M-41" value="" style="endArrow=oval;html=1;rounded=0;endFill=0;exitX=0;exitY=0;exitDx=0;exitDy=0;" parent="1" edge="1">
          <mxGeometry width="50" height="50" relative="1" as="geometry">
            <mxPoint x="400" y="115" as="sourcePoint" />
            <mxPoint x="400" y="40" as="targetPoint" />
          </mxGeometry>
        </mxCell>
        <mxCell id="XxSwmNDuDuMiFSIuTs7M-42" value="Inizio" style="edgeLabel;html=1;align=right;verticalAlign=middle;resizable=0;points=[];labelPosition=left;verticalLabelPosition=middle;spacing=6;labelBackgroundColor=none;" parent="XxSwmNDuDuMiFSIuTs7M-41" vertex="1" connectable="0">
          <mxGeometry x="0.9137" y="-2" relative="1" as="geometry">
            <mxPoint x="-3" as="offset" />
          </mxGeometry>
        </mxCell>
        <mxCell id="XxSwmNDuDuMiFSIuTs7M-43" value="" style="endArrow=oval;html=1;rounded=0;endFill=0;exitX=0.75;exitY=0;exitDx=0;exitDy=0;" parent="1" edge="1">
          <mxGeometry width="50" height="50" relative="1" as="geometry">
            <mxPoint x="440" y="80" as="sourcePoint" />
            <mxPoint x="440" y="40" as="targetPoint" />
          </mxGeometry>
        </mxCell>
        <mxCell id="XxSwmNDuDuMiFSIuTs7M-44" value="Fine" style="edgeLabel;html=1;align=right;verticalAlign=middle;resizable=0;points=[];labelPosition=left;verticalLabelPosition=middle;spacing=6;labelBackgroundColor=none;" parent="XxSwmNDuDuMiFSIuTs7M-43" vertex="1" connectable="0">
          <mxGeometry x="0.9137" y="-2" relative="1" as="geometry">
            <mxPoint x="-3" as="offset" />
          </mxGeometry>
        </mxCell>
        <mxCell id="4PHhtvDPiyyWFcfIa85--1" value="Richiesta" style="shape=rhombus;perimeter=rhombusPerimeter;whiteSpace=wrap;html=1;align=center;" parent="1" vertex="1">
          <mxGeometry x="72.5" y="210" width="120" height="60" as="geometry" />
        </mxCell>
        <mxCell id="4PHhtvDPiyyWFcfIa85--2" value="Servizio" style="whiteSpace=wrap;html=1;align=center;" parent="1" vertex="1">
          <mxGeometry x="82.5" y="360" width="100" height="40" as="geometry" />
        </mxCell>
        <mxCell id="4PHhtvDPiyyWFcfIa85--5" value="" style="endArrow=oval;html=1;rounded=0;endFill=0;exitX=0;exitY=0.5;exitDx=0;exitDy=0;" parent="1" source="4PHhtvDPiyyWFcfIa85--1" edge="1">
          <mxGeometry width="50" height="50" relative="1" as="geometry">
            <mxPoint x="97.5" y="360" as="sourcePoint" />
            <mxPoint x="40" y="240" as="targetPoint" />
          </mxGeometry>
        </mxCell>
        <mxCell id="4PHhtvDPiyyWFcfIa85--6" value="Data" style="edgeLabel;html=1;align=right;verticalAlign=middle;resizable=0;points=[];labelPosition=left;verticalLabelPosition=middle;spacing=6;labelBackgroundColor=none;" parent="4PHhtvDPiyyWFcfIa85--5" vertex="1" connectable="0">
          <mxGeometry x="0.9137" y="-2" relative="1" as="geometry">
            <mxPoint x="-3" as="offset" />
          </mxGeometry>
        </mxCell>
        <mxCell id="4PHhtvDPiyyWFcfIa85--7" value="" style="endArrow=none;html=1;rounded=0;exitX=0.5;exitY=1;exitDx=0;exitDy=0;entryX=0.5;entryY=0;entryDx=0;entryDy=0;" parent="1" source="6Imcm91qEhIeb4S8i93R-5" target="4PHhtvDPiyyWFcfIa85--1" edge="1">
          <mxGeometry relative="1" as="geometry">
            <mxPoint x="290" y="190" as="sourcePoint" />
            <mxPoint x="405" y="190" as="targetPoint" />
          </mxGeometry>
        </mxCell>
        <mxCell id="4PHhtvDPiyyWFcfIa85--8" value="" style="endArrow=none;html=1;rounded=0;exitX=0.5;exitY=1;exitDx=0;exitDy=0;entryX=0.495;entryY=0;entryDx=0;entryDy=0;entryPerimeter=0;" parent="1" source="4PHhtvDPiyyWFcfIa85--1" target="4PHhtvDPiyyWFcfIa85--2" edge="1">
          <mxGeometry relative="1" as="geometry">
            <mxPoint x="132" y="280" as="sourcePoint" />
            <mxPoint x="132" y="350" as="targetPoint" />
            <Array as="points">
              <mxPoint x="132.5" y="320" />
            </Array>
          </mxGeometry>
        </mxCell>
        <mxCell id="4PHhtvDPiyyWFcfIa85--17" value="" style="endArrow=oval;html=1;rounded=0;endFill=0;exitX=0;exitY=0.5;exitDx=0;exitDy=0;curved=1;" parent="1" source="4PHhtvDPiyyWFcfIa85--2" edge="1">
          <mxGeometry width="50" height="50" relative="1" as="geometry">
            <mxPoint x="182.5" y="360" as="sourcePoint" />
            <mxPoint x="50" y="380" as="targetPoint" />
          </mxGeometry>
        </mxCell>
        <mxCell id="4PHhtvDPiyyWFcfIa85--18" value="Durata" style="edgeLabel;html=1;align=right;verticalAlign=middle;resizable=0;points=[];labelPosition=left;verticalLabelPosition=middle;spacing=6;labelBackgroundColor=none;" parent="4PHhtvDPiyyWFcfIa85--17" vertex="1" connectable="0">
          <mxGeometry x="0.9137" y="-2" relative="1" as="geometry">
            <mxPoint x="-3" as="offset" />
          </mxGeometry>
        </mxCell>
        <mxCell id="4PHhtvDPiyyWFcfIa85--19" value="Recensione" style="whiteSpace=wrap;html=1;align=center;" parent="1" vertex="1">
          <mxGeometry x="380" y="340" width="100" height="40" as="geometry" />
        </mxCell>
        <mxCell id="4PHhtvDPiyyWFcfIa85--20" value="" style="endArrow=oval;html=1;rounded=0;endFill=0;exitX=0.25;exitY=1;exitDx=0;exitDy=0;curved=1;" parent="1" source="4PHhtvDPiyyWFcfIa85--19" edge="1">
          <mxGeometry width="50" height="50" relative="1" as="geometry">
            <mxPoint x="390" y="500" as="sourcePoint" />
            <mxPoint x="400" y="430" as="targetPoint" />
          </mxGeometry>
        </mxCell>
        <mxCell id="4PHhtvDPiyyWFcfIa85--21" value="Punteggio" style="edgeLabel;html=1;align=right;verticalAlign=middle;resizable=0;points=[];labelPosition=left;verticalLabelPosition=middle;spacing=6;labelBackgroundColor=none;" parent="4PHhtvDPiyyWFcfIa85--20" vertex="1" connectable="0">
          <mxGeometry x="0.9137" y="-2" relative="1" as="geometry">
            <mxPoint x="-3" as="offset" />
          </mxGeometry>
        </mxCell>
        <mxCell id="4PHhtvDPiyyWFcfIa85--22" value="Creazione" style="shape=rhombus;perimeter=rhombusPerimeter;whiteSpace=wrap;html=1;align=center;rotation=30;" parent="1" vertex="1">
          <mxGeometry x="210" y="210" width="120" height="60" as="geometry" />
        </mxCell>
        <mxCell id="4PHhtvDPiyyWFcfIa85--23" value="" style="endArrow=none;html=1;rounded=0;exitX=1;exitY=1;exitDx=0;exitDy=0;entryX=0;entryY=0.5;entryDx=0;entryDy=0;" parent="1" source="6Imcm91qEhIeb4S8i93R-5" target="4PHhtvDPiyyWFcfIa85--22" edge="1">
          <mxGeometry relative="1" as="geometry">
            <mxPoint x="230" y="180" as="sourcePoint" />
            <mxPoint x="230" y="250" as="targetPoint" />
          </mxGeometry>
        </mxCell>
        <mxCell id="4PHhtvDPiyyWFcfIa85--24" value="" style="endArrow=none;html=1;rounded=0;exitX=1;exitY=0.5;exitDx=0;exitDy=0;entryX=0;entryY=0;entryDx=0;entryDy=0;" parent="1" source="4PHhtvDPiyyWFcfIa85--22" target="4PHhtvDPiyyWFcfIa85--19" edge="1">
          <mxGeometry relative="1" as="geometry">
            <mxPoint x="324.00152422706634" y="300" as="sourcePoint" />
            <mxPoint x="382.04" y="428" as="targetPoint" />
          </mxGeometry>
        </mxCell>
        <mxCell id="4PHhtvDPiyyWFcfIa85--28" value="" style="endArrow=oval;html=1;rounded=0;endFill=0;" parent="1" edge="1">
          <mxGeometry width="50" height="50" relative="1" as="geometry">
            <mxPoint x="380" y="380" as="sourcePoint" />
            <mxPoint x="360" y="400" as="targetPoint" />
          </mxGeometry>
        </mxCell>
        <mxCell id="4PHhtvDPiyyWFcfIa85--29" value="Testo" style="edgeLabel;html=1;align=right;verticalAlign=middle;resizable=0;points=[];labelPosition=left;verticalLabelPosition=middle;spacing=6;labelBackgroundColor=none;" parent="4PHhtvDPiyyWFcfIa85--28" vertex="1" connectable="0">
          <mxGeometry x="0.9137" y="-2" relative="1" as="geometry">
            <mxPoint x="-3" as="offset" />
          </mxGeometry>
        </mxCell>
        <mxCell id="4PHhtvDPiyyWFcfIa85--31" value="" style="endArrow=oval;html=1;rounded=0;endFill=0;exitX=0.75;exitY=1;exitDx=0;exitDy=0;curved=1;" parent="1" source="4PHhtvDPiyyWFcfIa85--19" edge="1">
          <mxGeometry width="50" height="50" relative="1" as="geometry">
            <mxPoint x="422.04" y="490" as="sourcePoint" />
            <mxPoint x="460" y="420" as="targetPoint" />
          </mxGeometry>
        </mxCell>
        <mxCell id="4PHhtvDPiyyWFcfIa85--32" value="Data" style="edgeLabel;html=1;align=right;verticalAlign=middle;resizable=0;points=[];labelPosition=left;verticalLabelPosition=middle;spacing=6;labelBackgroundColor=none;" parent="4PHhtvDPiyyWFcfIa85--31" vertex="1" connectable="0">
          <mxGeometry x="0.9137" y="-2" relative="1" as="geometry">
            <mxPoint x="-3" as="offset" />
          </mxGeometry>
        </mxCell>
        <mxCell id="4PHhtvDPiyyWFcfIa85--45" value="Prenotazione" style="whiteSpace=wrap;html=1;align=center;" parent="1" vertex="1">
          <mxGeometry x="380" y="80" width="100" height="40" as="geometry" />
        </mxCell>
        <mxCell id="4PHhtvDPiyyWFcfIa85--48" value="Effettuazione" style="shape=rhombus;perimeter=rhombusPerimeter;whiteSpace=wrap;html=1;align=center;" parent="1" vertex="1">
          <mxGeometry x="220" y="70" width="120" height="60" as="geometry" />
        </mxCell>
        <mxCell id="4PHhtvDPiyyWFcfIa85--49" value="Relazione" style="shape=rhombus;perimeter=rhombusPerimeter;whiteSpace=wrap;html=1;align=center;" parent="1" vertex="1">
          <mxGeometry x="520" y="70" width="120" height="60" as="geometry" />
        </mxCell>
        <mxCell id="4PHhtvDPiyyWFcfIa85--50" value="" style="endArrow=none;html=1;rounded=0;exitX=1;exitY=0.5;exitDx=0;exitDy=0;entryX=0;entryY=0.5;entryDx=0;entryDy=0;" parent="1" source="6Imcm91qEhIeb4S8i93R-5" target="4PHhtvDPiyyWFcfIa85--48" edge="1">
          <mxGeometry relative="1" as="geometry">
            <mxPoint x="150" y="150" as="sourcePoint" />
            <mxPoint x="150" y="240" as="targetPoint" />
          </mxGeometry>
        </mxCell>
        <mxCell id="4PHhtvDPiyyWFcfIa85--51" value="" style="endArrow=none;html=1;rounded=0;exitX=1;exitY=0.5;exitDx=0;exitDy=0;entryX=0;entryY=0.5;entryDx=0;entryDy=0;" parent="1" source="4PHhtvDPiyyWFcfIa85--48" target="4PHhtvDPiyyWFcfIa85--45" edge="1">
          <mxGeometry relative="1" as="geometry">
            <mxPoint x="310" y="180" as="sourcePoint" />
            <mxPoint x="347" y="180" as="targetPoint" />
          </mxGeometry>
        </mxCell>
        <mxCell id="4PHhtvDPiyyWFcfIa85--52" value="" style="endArrow=none;html=1;rounded=0;exitX=1;exitY=0.5;exitDx=0;exitDy=0;entryX=0;entryY=0.5;entryDx=0;entryDy=0;" parent="1" source="4PHhtvDPiyyWFcfIa85--45" target="4PHhtvDPiyyWFcfIa85--49" edge="1">
          <mxGeometry relative="1" as="geometry">
            <mxPoint x="460" y="190" as="sourcePoint" />
            <mxPoint x="500" y="190" as="targetPoint" />
          </mxGeometry>
        </mxCell>
        <mxCell id="4PHhtvDPiyyWFcfIa85--53" value="" style="endArrow=none;html=1;rounded=0;exitX=1;exitY=0.5;exitDx=0;exitDy=0;entryX=0;entryY=0.5;entryDx=0;entryDy=0;" parent="1" source="4PHhtvDPiyyWFcfIa85--49" target="XxSwmNDuDuMiFSIuTs7M-9" edge="1">
          <mxGeometry relative="1" as="geometry">
            <mxPoint x="610" y="240" as="sourcePoint" />
            <mxPoint x="650" y="240" as="targetPoint" />
          </mxGeometry>
        </mxCell>
        <mxCell id="4PHhtvDPiyyWFcfIa85--54" value="Riguardo" style="shape=rhombus;perimeter=rhombusPerimeter;whiteSpace=wrap;html=1;align=center;" parent="1" vertex="1">
          <mxGeometry x="370" y="200" width="120" height="60" as="geometry" />
        </mxCell>
        <mxCell id="4PHhtvDPiyyWFcfIa85--55" value="" style="endArrow=none;html=1;rounded=0;exitX=0.5;exitY=1;exitDx=0;exitDy=0;entryX=0.5;entryY=0;entryDx=0;entryDy=0;" parent="1" source="4PHhtvDPiyyWFcfIa85--45" target="4PHhtvDPiyyWFcfIa85--54" edge="1">
          <mxGeometry relative="1" as="geometry">
            <mxPoint x="310" y="180" as="sourcePoint" />
            <mxPoint x="345" y="240" as="targetPoint" />
          </mxGeometry>
        </mxCell>
        <mxCell id="4PHhtvDPiyyWFcfIa85--56" value="" style="endArrow=none;html=1;rounded=0;exitX=0.5;exitY=1;exitDx=0;exitDy=0;entryX=0.5;entryY=0;entryDx=0;entryDy=0;" parent="1" source="4PHhtvDPiyyWFcfIa85--54" target="4PHhtvDPiyyWFcfIa85--19" edge="1">
          <mxGeometry relative="1" as="geometry">
            <mxPoint x="470" y="200" as="sourcePoint" />
            <mxPoint x="460" y="250" as="targetPoint" />
          </mxGeometry>
        </mxCell>
        <mxCell id="4PHhtvDPiyyWFcfIa85--61" value="" style="endArrow=oval;html=1;rounded=0;endFill=1;exitX=0.75;exitY=0;exitDx=0;exitDy=0;" parent="1" source="4PHhtvDPiyyWFcfIa85--45" edge="1">
          <mxGeometry width="50" height="50" relative="1" as="geometry">
            <mxPoint x="480" y="80" as="sourcePoint" />
            <mxPoint x="490" y="50" as="targetPoint" />
          </mxGeometry>
        </mxCell>
        <mxCell id="4PHhtvDPiyyWFcfIa85--62" value="Codice" style="edgeLabel;html=1;align=center;verticalAlign=bottom;resizable=0;points=[];labelPosition=center;verticalLabelPosition=top;spacing=6;" parent="4PHhtvDPiyyWFcfIa85--61" vertex="1" connectable="0">
          <mxGeometry x="0.9137" y="-2" relative="1" as="geometry">
            <mxPoint as="offset" />
          </mxGeometry>
        </mxCell>
        <mxCell id="4PHhtvDPiyyWFcfIa85--65" value="(0,N)" style="text;html=1;align=center;verticalAlign=middle;resizable=0;points=[];autosize=1;strokeColor=none;fillColor=none;" parent="1" vertex="1">
          <mxGeometry x="180" y="70" width="50" height="30" as="geometry" />
        </mxCell>
        <mxCell id="4PHhtvDPiyyWFcfIa85--66" value="(1,1)" style="text;html=1;align=center;verticalAlign=middle;resizable=0;points=[];autosize=1;strokeColor=none;fillColor=none;" parent="1" vertex="1">
          <mxGeometry x="336" y="71" width="50" height="30" as="geometry" />
        </mxCell>
        <mxCell id="4PHhtvDPiyyWFcfIa85--67" value="(1,1)" style="text;html=1;align=center;verticalAlign=middle;resizable=0;points=[];autosize=1;strokeColor=none;fillColor=none;" parent="1" vertex="1">
          <mxGeometry x="474" y="71" width="50" height="30" as="geometry" />
        </mxCell>
        <mxCell id="4PHhtvDPiyyWFcfIa85--68" value="(0,N)" style="text;html=1;align=center;verticalAlign=middle;resizable=0;points=[];autosize=1;strokeColor=none;fillColor=none;" parent="1" vertex="1">
          <mxGeometry x="637" y="72" width="50" height="30" as="geometry" />
        </mxCell>
        <mxCell id="4PHhtvDPiyyWFcfIa85--69" value="(0,N)" style="text;html=1;align=center;verticalAlign=middle;resizable=0;points=[];autosize=1;strokeColor=none;fillColor=none;" parent="1" vertex="1">
          <mxGeometry x="89" y="119" width="50" height="30" as="geometry" />
        </mxCell>
        <mxCell id="4PHhtvDPiyyWFcfIa85--70" value="(0,N)" style="text;html=1;align=center;verticalAlign=middle;resizable=0;points=[];autosize=1;strokeColor=none;fillColor=none;" parent="1" vertex="1">
          <mxGeometry x="89" y="330" width="50" height="30" as="geometry" />
        </mxCell>
        <mxCell id="4PHhtvDPiyyWFcfIa85--71" value="(0,N)" style="text;html=1;align=center;verticalAlign=middle;resizable=0;points=[];autosize=1;strokeColor=none;fillColor=none;" parent="1" vertex="1">
          <mxGeometry x="142.5" y="120" width="50" height="30" as="geometry" />
        </mxCell>
        <mxCell id="4PHhtvDPiyyWFcfIa85--72" value="(1,1)" style="text;html=1;align=center;verticalAlign=middle;resizable=0;points=[];autosize=1;strokeColor=none;fillColor=none;" parent="1" vertex="1">
          <mxGeometry x="330" y="330" width="50" height="30" as="geometry" />
        </mxCell>
        <mxCell id="4PHhtvDPiyyWFcfIa85--73" value="(1,1)" style="text;html=1;align=center;verticalAlign=middle;resizable=0;points=[];autosize=1;strokeColor=none;fillColor=none;" parent="1" vertex="1">
          <mxGeometry x="429" y="310" width="50" height="30" as="geometry" />
        </mxCell>
        <mxCell id="4PHhtvDPiyyWFcfIa85--74" value="(0,1)" style="text;html=1;align=center;verticalAlign=middle;resizable=0;points=[];autosize=1;strokeColor=none;fillColor=none;" parent="1" vertex="1">
          <mxGeometry x="430" y="120" width="50" height="30" as="geometry" />
        </mxCell>
        <mxCell id="4PHhtvDPiyyWFcfIa85--75" value="" style="endArrow=oval;html=1;rounded=0;endFill=1;exitX=0;exitY=0;exitDx=0;exitDy=0;curved=1;" parent="1" source="4PHhtvDPiyyWFcfIa85--2" edge="1">
          <mxGeometry width="50" height="50" relative="1" as="geometry">
            <mxPoint x="72.5" y="460" as="sourcePoint" />
            <mxPoint x="50" y="340" as="targetPoint" />
          </mxGeometry>
        </mxCell>
        <mxCell id="4PHhtvDPiyyWFcfIa85--76" value="Nome" style="edgeLabel;html=1;align=center;verticalAlign=bottom;resizable=0;points=[];labelPosition=center;verticalLabelPosition=top;spacing=6;" parent="4PHhtvDPiyyWFcfIa85--75" vertex="1" connectable="0">
          <mxGeometry x="0.9137" y="-2" relative="1" as="geometry">
            <mxPoint as="offset" />
          </mxGeometry>
        </mxCell>
        <mxCell id="4PHhtvDPiyyWFcfIa85--78" value="&lt;h1 style=&quot;margin-top: 0px;&quot;&gt;Lista tabelle&lt;/h1&gt;&lt;div&gt;&lt;b&gt;- Cliente&lt;/b&gt; (CF, Nome, Età, Email)&lt;/div&gt;&lt;div&gt;&lt;b&gt;- Prenotazione &lt;/b&gt;(Codice, Cliente, Stanza, Inizio, Fine)&lt;/div&gt;&lt;div&gt;- &lt;b&gt;Stanza &lt;/b&gt;(Numero, Tipologia, Prezzo, Capacità)&lt;/div&gt;&lt;div&gt;- &lt;b&gt;Recensione &lt;/b&gt;(Prenotazione, Testo, Punteggio, Data)&lt;/div&gt;&lt;div&gt;- &lt;b&gt;Servizio &lt;/b&gt;(Nome, Descrizione, Durata)&lt;/div&gt;&lt;div&gt;- &lt;b&gt;RichiestaServizio&lt;/b&gt;&amp;nbsp;(Cliente, Servizio&lt;u&gt;,&lt;/u&gt; &lt;u&gt;Data&lt;/u&gt;)&lt;/div&gt;&lt;div&gt;&lt;br&gt;&lt;/div&gt;&lt;h1&gt;Vincoli d&#39;integrità referenziale&lt;/h1&gt;&lt;div&gt;Prenotazione.Cliente -&amp;gt; Cliente.CF&lt;/div&gt;&lt;div&gt;Prenotazione.Stanza -&amp;gt; Stanza.Numero&lt;/div&gt;&lt;div&gt;&lt;span style=&quot;background-color: transparent; color: light-dark(rgb(0, 0, 0), rgb(255, 255, 255));&quot;&gt;Recensione.Prenotazione -&amp;gt; Prenotazione.Codice&lt;/span&gt;&lt;/div&gt;&lt;div&gt;RichiestaServizio.Cliente -&amp;gt; Cliente.CF&lt;/div&gt;&lt;div&gt;RIchiestaServizio.Servizio -&amp;gt; Servizio.Nome&lt;/div&gt;" style="text;html=1;whiteSpace=wrap;overflow=hidden;rounded=0;" parent="1" vertex="1">
          <mxGeometry x="637" y="400" width="360" height="314" as="geometry" />
        </mxCell>
        <mxCell id="4PHhtvDPiyyWFcfIa85--79" value="Stanza" style="whiteSpace=wrap;html=1;align=center;" parent="1" vertex="1">
          <mxGeometry x="115.5" y="640" width="100" height="40" as="geometry" />
        </mxCell>
        <mxCell id="4PHhtvDPiyyWFcfIa85--80" value="" style="endArrow=oval;html=1;rounded=0;endFill=0;exitX=0.25;exitY=0;exitDx=0;exitDy=0;" parent="1" source="4PHhtvDPiyyWFcfIa85--79" edge="1">
          <mxGeometry width="50" height="50" relative="1" as="geometry">
            <mxPoint x="115.5" y="640" as="sourcePoint" />
            <mxPoint x="121.5" y="605" as="targetPoint" />
          </mxGeometry>
        </mxCell>
        <mxCell id="4PHhtvDPiyyWFcfIa85--81" value="Prezzo" style="edgeLabel;html=1;align=right;verticalAlign=middle;resizable=0;points=[];labelPosition=left;verticalLabelPosition=middle;spacing=6;labelBackgroundColor=none;" parent="4PHhtvDPiyyWFcfIa85--80" vertex="1" connectable="0">
          <mxGeometry x="0.9137" y="-2" relative="1" as="geometry">
            <mxPoint x="-3" as="offset" />
          </mxGeometry>
        </mxCell>
        <mxCell id="4PHhtvDPiyyWFcfIa85--82" value="" style="endArrow=oval;html=1;rounded=0;endFill=1;exitX=0.5;exitY=0;exitDx=0;exitDy=0;" parent="1" source="4PHhtvDPiyyWFcfIa85--79" edge="1">
          <mxGeometry width="50" height="50" relative="1" as="geometry">
            <mxPoint x="180.5" y="640" as="sourcePoint" />
            <mxPoint x="165.5" y="610" as="targetPoint" />
          </mxGeometry>
        </mxCell>
        <mxCell id="4PHhtvDPiyyWFcfIa85--83" value="Numero" style="edgeLabel;html=1;align=center;verticalAlign=bottom;resizable=0;points=[];labelPosition=center;verticalLabelPosition=top;spacing=6;" parent="4PHhtvDPiyyWFcfIa85--82" vertex="1" connectable="0">
          <mxGeometry x="0.9137" y="-2" relative="1" as="geometry">
            <mxPoint as="offset" />
          </mxGeometry>
        </mxCell>
        <mxCell id="4PHhtvDPiyyWFcfIa85--84" value="" style="endArrow=oval;html=1;rounded=0;endFill=0;exitX=0.25;exitY=0;exitDx=0;exitDy=0;" parent="1" edge="1">
          <mxGeometry width="50" height="50" relative="1" as="geometry">
            <mxPoint x="215.5" y="640" as="sourcePoint" />
            <mxPoint x="241.5" y="615" as="targetPoint" />
          </mxGeometry>
        </mxCell>
        <mxCell id="4PHhtvDPiyyWFcfIa85--85" value="Capacità" style="edgeLabel;html=1;align=right;verticalAlign=middle;resizable=0;points=[];labelPosition=left;verticalLabelPosition=middle;spacing=6;labelBackgroundColor=none;" parent="4PHhtvDPiyyWFcfIa85--84" vertex="1" connectable="0">
          <mxGeometry x="0.9137" y="-2" relative="1" as="geometry">
            <mxPoint x="-3" as="offset" />
          </mxGeometry>
        </mxCell>
        <mxCell id="4PHhtvDPiyyWFcfIa85--96" value="" style="endArrow=oval;html=1;rounded=0;endFill=0;exitX=0;exitY=0.25;exitDx=0;exitDy=0;curved=1;" parent="1" source="4PHhtvDPiyyWFcfIa85--79" edge="1">
          <mxGeometry width="50" height="50" relative="1" as="geometry">
            <mxPoint x="321.5" y="695" as="sourcePoint" />
            <mxPoint x="71.5" y="635" as="targetPoint" />
          </mxGeometry>
        </mxCell>
        <mxCell id="4PHhtvDPiyyWFcfIa85--97" value="Tipologia" style="edgeLabel;html=1;align=right;verticalAlign=middle;resizable=0;points=[];labelPosition=left;verticalLabelPosition=middle;spacing=6;labelBackgroundColor=none;" parent="4PHhtvDPiyyWFcfIa85--96" vertex="1" connectable="0">
          <mxGeometry x="0.9137" y="-2" relative="1" as="geometry">
            <mxPoint x="-3" as="offset" />
          </mxGeometry>
        </mxCell>
        <mxCell id="4PHhtvDPiyyWFcfIa85--101" value="RichiestaServizio" style="whiteSpace=wrap;html=1;align=center;" parent="1" vertex="1">
          <mxGeometry x="359" y="640" width="100" height="40" as="geometry" />
        </mxCell>
        <mxCell id="4PHhtvDPiyyWFcfIa85--102" value="" style="endArrow=oval;html=1;rounded=0;endFill=0;exitX=0;exitY=0;exitDx=0;exitDy=0;curved=1;" parent="1" source="4PHhtvDPiyyWFcfIa85--101" edge="1">
          <mxGeometry width="50" height="50" relative="1" as="geometry">
            <mxPoint x="394" y="630" as="sourcePoint" />
            <mxPoint x="339" y="600" as="targetPoint" />
          </mxGeometry>
        </mxCell>
        <mxCell id="4PHhtvDPiyyWFcfIa85--103" value="Cliente" style="edgeLabel;html=1;align=right;verticalAlign=middle;resizable=0;points=[];labelPosition=left;verticalLabelPosition=middle;spacing=6;labelBackgroundColor=none;" parent="4PHhtvDPiyyWFcfIa85--102" vertex="1" connectable="0">
          <mxGeometry x="0.9137" y="-2" relative="1" as="geometry">
            <mxPoint x="-3" as="offset" />
          </mxGeometry>
        </mxCell>
        <mxCell id="4PHhtvDPiyyWFcfIa85--104" value="" style="endArrow=oval;html=1;rounded=0;endFill=0;exitX=1;exitY=0;exitDx=0;exitDy=0;curved=1;" parent="1" source="4PHhtvDPiyyWFcfIa85--101" edge="1">
          <mxGeometry width="50" height="50" relative="1" as="geometry">
            <mxPoint x="614" y="620" as="sourcePoint" />
            <mxPoint x="479" y="600" as="targetPoint" />
          </mxGeometry>
        </mxCell>
        <mxCell id="4PHhtvDPiyyWFcfIa85--105" value="Servizio" style="edgeLabel;html=1;align=right;verticalAlign=middle;resizable=0;points=[];labelPosition=left;verticalLabelPosition=middle;spacing=6;labelBackgroundColor=none;" parent="4PHhtvDPiyyWFcfIa85--104" vertex="1" connectable="0">
          <mxGeometry x="0.9137" y="-2" relative="1" as="geometry">
            <mxPoint x="-3" as="offset" />
          </mxGeometry>
        </mxCell>
        <mxCell id="4PHhtvDPiyyWFcfIa85--106" value="" style="endArrow=oval;html=1;rounded=0;endFill=0;exitX=0.5;exitY=0;exitDx=0;exitDy=0;curved=1;" parent="1" source="4PHhtvDPiyyWFcfIa85--101" edge="1">
          <mxGeometry width="50" height="50" relative="1" as="geometry">
            <mxPoint x="431.5" y="640" as="sourcePoint" />
            <mxPoint x="409" y="600" as="targetPoint" />
          </mxGeometry>
        </mxCell>
        <mxCell id="4PHhtvDPiyyWFcfIa85--107" value="Data" style="edgeLabel;html=1;align=right;verticalAlign=middle;resizable=0;points=[];labelPosition=left;verticalLabelPosition=middle;spacing=6;labelBackgroundColor=none;" parent="4PHhtvDPiyyWFcfIa85--106" vertex="1" connectable="0">
          <mxGeometry x="0.9137" y="-2" relative="1" as="geometry">
            <mxPoint x="-3" as="offset" />
          </mxGeometry>
        </mxCell>
        <mxCell id="4PHhtvDPiyyWFcfIa85--108" value="" style="endArrow=oval;html=1;rounded=1;edgeStyle=orthogonalEdgeStyle;arcSize=59;curved=0;endFill=1;startSize=5;endSize=4;" parent="1" edge="1">
          <mxGeometry width="50" height="50" relative="1" as="geometry">
            <mxPoint x="479" y="620" as="sourcePoint" />
            <mxPoint x="329" y="620" as="targetPoint" />
            <Array as="points">
              <mxPoint x="379" y="620" />
            </Array>
          </mxGeometry>
        </mxCell>
        <mxCell id="4PHhtvDPiyyWFcfIa85--111" value="" style="endArrow=oval;html=1;rounded=0;endFill=0;curved=1;exitX=0.25;exitY=1;exitDx=0;exitDy=0;" parent="1" source="4PHhtvDPiyyWFcfIa85--2" edge="1">
          <mxGeometry width="50" height="50" relative="1" as="geometry">
            <mxPoint x="80" y="400" as="sourcePoint" />
            <mxPoint x="90" y="440" as="targetPoint" />
          </mxGeometry>
        </mxCell>
        <mxCell id="4PHhtvDPiyyWFcfIa85--112" value="Descrizione" style="edgeLabel;html=1;align=right;verticalAlign=middle;resizable=0;points=[];labelPosition=left;verticalLabelPosition=middle;spacing=6;labelBackgroundColor=none;" parent="4PHhtvDPiyyWFcfIa85--111" vertex="1" connectable="0">
          <mxGeometry x="0.9137" y="-2" relative="1" as="geometry">
            <mxPoint x="-3" as="offset" />
          </mxGeometry>
        </mxCell>
        <mxCell id="4PHhtvDPiyyWFcfIa85--113" value="" style="endArrow=oval;html=1;rounded=0;endFill=1;curved=1;" parent="1" edge="1">
          <mxGeometry width="50" height="50" relative="1" as="geometry">
            <mxPoint x="409" y="309" as="sourcePoint" />
            <mxPoint x="459" y="309" as="targetPoint" />
          </mxGeometry>
        </mxCell>
        <mxCell id="4PHhtvDPiyyWFcfIa85--115" value="&lt;h1&gt;Ristrutturazione&lt;/h1&gt;&lt;div&gt;Rimuovo il riferimento a Cliente da Recensione perché ridondante (si può ricavare da Prenotazione)&lt;/div&gt;" style="text;html=1;align=left;verticalAlign=middle;resizable=0;points=[];autosize=1;strokeColor=none;fillColor=none;" parent="1" vertex="1">
          <mxGeometry x="40" y="470" width="550" height="90" as="geometry" />
        </mxCell>
      </root>
    </mxGraphModel>
  </diagram>
</mxfile>
